<?xml version="1.0" standalone="no"?>
<!DOCTYPE svg PUBLIC "-//W3C//DTD SVG 20010904//EN"
 "http://www.w3.org/TR/2001/REC-SVG-20010904/DTD/svg10.dtd">
<svg version="1.0" xmlns="http://www.w3.org/2000/svg"
 width="300.000000pt" height="410.000000pt" viewBox="0 0 300.000000 410.000000"
 preserveAspectRatio="xMidYMid meet">
<metadata>
Created by potrace 1.10, written by Peter Selinger 2001-2011
</metadata>
<g transform="translate(0.000000,410.000000) scale(0.100000,-0.100000)"
fill="#000000" stroke="none">
<path d="M975 4070 c-230 -49 -449 -169 -637 -349 l-98 -93 0 -107 c0 -233
-39 -526 -121 -911 -81 -380 -118 -573 -112 -583 13 -22 91 -47 148 -47 80 0
130 15 155 48 l21 27 -31 14 c-28 14 -37 13 -98 -7 -114 -37 -114 -36 -131
-13 -16 20 -15 30 15 149 17 70 50 228 73 352 82 444 102 547 137 680 50 192
44 179 61 144 40 -77 115 -119 306 -169 283 -75 357 -151 293 -303 -14 -34
-26 -75 -26 -91 l0 -31 -47 30 c-61 39 -185 86 -274 105 -147 31 -258 13 -323
-54 -52 -53 -30 -62 44 -17 82 51 150 47 136 -7 -9 -38 -33 -57 -72 -57 -19 0
-34 -4 -34 -8 0 -16 25 -32 50 -32 14 0 36 -7 49 -16 24 -17 25 -32 5 -115 -5
-23 -2 -27 27 -33 39 -8 53 3 85 66 25 50 37 56 67 34 23 -18 21 -42 -5 -60
l-22 -16 23 0 c12 0 34 9 49 20 35 28 54 9 24 -23 -32 -34 -17 -39 34 -10 61
34 99 93 60 93 -7 0 -51 32 -97 72 -45 39 -99 80 -118 90 l-36 19 63 -5 c72
-7 170 -42 255 -93 l57 -34 0 -74 c0 -80 -3 -76 66 -90 32 -6 72 -40 62 -51
-4 -3 -15 0 -26 7 -21 13 -57 7 -86 -14 -42 -31 16 -73 87 -64 38 5 79 34 98
70 9 15 7 17 -15 11 -41 -10 -49 28 -18 88 14 26 29 48 33 48 5 0 20 -17 33
-37 25 -36 25 -38 8 -58 -10 -11 -25 -39 -32 -63 -12 -37 -12 -51 0 -90 8 -26
14 -67 14 -92 0 -25 5 -48 10 -52 18 -13 85 -9 123 7 45 19 44 19 37 -9 -7
-30 9 -63 50 -98 23 -20 26 -28 14 -28 -21 0 -31 -32 -23 -70 8 -35 35 -39
100 -14 l41 15 12 131 c12 134 48 308 64 308 5 0 6 -28 4 -62 -3 -35 -8 -110
-11 -168 -11 -192 -71 -434 -145 -579 -17 -35 -29 -65 -27 -67 12 -13 61 47
90 109 37 80 74 124 61 71 -19 -71 -5 -104 43 -104 54 0 79 22 104 91 19 52
24 58 33 42 18 -29 13 -227 -7 -320 -18 -83 -18 -83 4 -112 18 -25 21 -37 15
-78 -13 -90 -15 -85 37 -102 45 -14 49 -13 75 6 38 27 60 100 78 256 16 137
32 217 43 217 7 0 1 -103 -30 -516 l-22 -291 31 -45 c38 -55 46 -86 33 -121
-10 -25 -8 -29 17 -38 15 -6 51 -13 80 -16 114 -12 36 -33 -126 -33 l-103 0
-47 -39 c-55 -46 -93 -66 -244 -127 -177 -72 -221 -97 -253 -144 -46 -67 -186
-192 -260 -233 -37 -20 -70 -36 -72 -34 -1 2 2 30 8 63 14 76 6 218 -19 314
-11 41 -49 154 -85 250 -84 226 -100 286 -101 395 l-1 90 70 8 c66 7 114 28
122 54 3 8 -8 8 -39 1 -24 -6 -113 -10 -198 -10 -165 0 -262 17 -348 61 -76
39 -134 133 -118 194 3 14 22 44 42 68 26 31 34 48 29 63 -20 62 -19 66 12 66
35 0 44 7 36 26 -7 18 -34 18 -59 -1 -39 -30 -75 -5 -58 39 11 28 49 36 144
29 103 -7 97 -15 78 98 -9 55 -14 69 -27 67 -11 -2 -16 -14 -16 -37 0 -19 -6
-36 -13 -39 -7 -2 -43 10 -79 28 -35 18 -82 34 -103 37 -34 5 -43 1 -70 -25
l-31 -31 32 -29 c29 -26 33 -37 40 -100 4 -38 15 -85 24 -102 16 -31 16 -33
-4 -54 -26 -27 -51 -98 -51 -143 0 -46 32 -105 75 -141 51 -41 121 -74 271
-125 71 -25 136 -48 146 -52 11 -4 19 -24 23 -58 12 -95 53 -251 108 -407 93
-266 127 -427 127 -603 l0 -67 28 6 c15 3 60 21 100 40 58 28 98 60 205 163
150 144 188 172 324 240 115 58 241 103 373 136 160 39 144 39 164 -2 10 -21
36 -59 58 -85 39 -47 40 -48 15 -48 -53 0 -74 -53 -36 -89 22 -20 137 -54 152
-44 5 3 18 25 29 49 14 33 21 82 28 192 4 81 12 158 18 172 9 23 10 22 17 -19
4 -24 4 -103 0 -175 -6 -125 -6 -132 14 -150 15 -14 21 -31 21 -65 0 -76 7
-89 51 -96 61 -11 78 0 110 71 l29 63 36 -24 c19 -13 44 -27 55 -30 24 -8 24
-17 -1 -40 -11 -10 -20 -28 -20 -41 0 -18 8 -26 39 -35 61 -18 89 -6 113 49
20 45 22 68 26 442 11 887 11 887 -27 1045 -50 217 -46 254 64 517 20 48 40
114 45 145 10 59 12 208 3 186 -12 -32 -23 -7 -23 56 0 65 11 98 23 69 12 -29
6 155 -8 247 -19 126 -29 174 -67 308 -29 103 -33 109 -73 137 -23 16 -72 69
-109 118 -112 151 -197 216 -432 329 -221 106 -466 179 -679 203 -50 5 -133
19 -185 30 -126 26 -328 26 -455 0z m249 -62 c-9 -18 -33 -57 -53 -87 -36 -54
-36 -55 -36 -160 0 -100 2 -110 32 -171 18 -36 67 -103 108 -150 90 -101 132
-180 141 -267 9 -89 -12 -84 -66 15 -28 51 -50 65 -50 32 0 -25 23 -72 57
-117 34 -45 26 -57 -22 -33 -54 27 -68 54 -104 197 -30 123 -45 155 -126 272
-25 35 -52 84 -60 110 l-15 46 3 -65 c3 -73 25 -125 106 -255 56 -89 84 -177
79 -245 l-3 -45 -28 45 c-15 25 -41 90 -58 145 -42 133 -84 215 -111 215 -21
0 -4 -65 42 -154 42 -83 50 -106 50 -154 l0 -56 -21 20 c-12 13 -23 41 -28 75
-9 66 -15 78 -104 202 -92 129 -116 190 -117 289 0 102 27 176 87 235 65 66
131 90 246 92 l68 1 -17 -32z m186 12 c11 -11 29 -20 40 -20 25 0 26 -27 4
-141 -9 -46 -17 -120 -16 -164 0 -70 7 -98 52 -224 72 -205 75 -280 18 -399
l-20 -43 31 -60 c38 -72 42 -129 10 -129 -12 0 -41 20 -66 46 -44 45 -45 47
-35 83 22 72 31 171 21 234 -14 89 -60 173 -151 274 -104 116 -132 174 -133
273 0 101 22 157 86 214 40 36 77 57 137 75 1 1 11 -8 22 -19z m-490 -29 c0
-4 -17 -28 -38 -52 -22 -24 -42 -57 -46 -74 -4 -16 -15 -38 -24 -48 -13 -15
-14 -23 -3 -52 10 -30 9 -40 -9 -84 -12 -27 -33 -59 -46 -72 -13 -12 -24 -28
-24 -34 0 -26 62 -95 131 -145 40 -29 84 -65 97 -79 30 -31 61 -98 62 -129 0
-19 -4 -17 -37 19 -21 23 -87 74 -148 114 -60 40 -120 83 -132 96 -41 46 -64
106 -70 183 l-6 75 36 15 c38 16 56 44 96 151 25 67 35 84 71 108 25 18 90 24
90 8z m790 -15 c47 -3 105 -12 130 -21 53 -19 106 -67 120 -109 5 -17 9 -105
7 -196 l-2 -165 44 -129 c50 -149 60 -224 38 -276 -15 -36 -17 -35 -33 18 -8
27 -23 8 -67 -85 -56 -122 -94 -242 -103 -327 -4 -37 -10 -66 -13 -66 -13 0
-101 119 -101 136 1 35 37 99 98 171 38 46 66 89 73 115 18 67 5 170 -40 316
-52 169 -54 229 -11 337 32 80 39 150 18 178 -11 15 -13 10 -14 -30 -1 -30
-14 -79 -35 -128 -46 -112 -46 -192 1 -330 26 -75 34 -117 35 -170 0 -63 -4
-78 -43 -155 -48 -93 -113 -200 -123 -200 -18 0 -25 182 -9 239 5 18 17 45 27
60 10 14 16 30 15 35 -2 5 -9 58 -17 117 -15 112 -22 136 -49 159 -20 15 -20
8 -1 -54 21 -68 19 -121 -10 -266 -14 -72 -25 -160 -25 -208 0 -92 -9 -98 -41
-28 -26 57 -23 127 7 221 41 126 42 194 6 295 -16 47 -47 123 -68 170 -62 139
-59 280 7 363 15 20 26 24 56 21 21 -2 76 -5 123 -8z m-1042 -133 c-60 -92
-72 -125 -71 -202 l1 -66 -29 34 c-54 65 -46 169 20 242 31 34 108 75 120 64
2 -2 -17 -35 -41 -72z m1375 36 c43 -36 60 -86 77 -229 13 -112 28 -180 70
-315 44 -138 51 -275 21 -357 -18 -47 -34 -66 -86 -108 -69 -57 -137 -141
-167 -209 -29 -63 -22 -156 15 -204 34 -45 34 -48 -3 -35 -48 16 -81 82 -81
160 0 80 17 129 91 253 79 135 110 204 123 280 11 62 10 66 -38 212 l-50 148
0 185 c-1 154 -4 190 -18 218 -23 42 -5 43 46 1z m189 -76 c37 -24 60 -47 64
-63 4 -14 35 -95 69 -180 86 -211 99 -258 99 -365 1 -104 -6 -134 -29 -115
-10 8 -15 31 -15 64 0 28 -4 57 -9 65 -18 28 -23 -13 -16 -133 9 -161 -3 -221
-73 -355 -109 -209 -124 -242 -140 -320 -14 -67 -14 -92 -5 -158 6 -43 15 -86
18 -95 11 -27 -10 -22 -49 12 -52 46 -71 106 -70 220 1 178 42 280 160 393
114 109 129 144 129 302 l-1 120 -56 145 c-30 80 -59 160 -63 178 -8 39 -23
42 -27 5 -2 -17 -10 -29 -20 -31 -16 -3 -18 6 -18 82 0 91 -14 174 -37 219
-29 58 8 62 89 10z m-1729 -73 c-11 -119 42 -194 250 -352 122 -94 170 -143
206 -215 31 -61 26 -67 -23 -29 -25 18 -75 45 -113 60 -37 14 -103 38 -145 54
-146 55 -219 117 -234 198 -3 19 -10 31 -15 28 -18 -11 -9 -70 17 -108 22 -31
23 -37 9 -34 -10 1 -27 16 -39 31 -18 25 -21 42 -21 143 0 63 -3 114 -6 114
-15 0 -39 -40 -53 -91 -16 -54 -49 -99 -62 -86 -11 11 15 119 41 172 30 62 97
132 150 156 22 10 41 19 42 19 0 0 -1 -27 -4 -60z m1904 -19 c97 -65 106 -78
162 -220 88 -223 104 -299 105 -486 1 -144 -1 -167 -23 -230 -37 -108 -94
-214 -164 -306 -72 -94 -99 -143 -117 -207 -11 -42 -10 -46 28 -110 21 -37 44
-82 50 -99 10 -30 9 -33 -8 -33 -11 0 -24 9 -30 20 -6 11 -15 20 -20 20 -19 0
-9 -28 26 -74 19 -26 38 -62 41 -81 l6 -35 -58 35 c-99 59 -97 56 -89 160 5
77 4 98 -11 129 -17 36 -17 40 3 123 12 47 44 135 73 197 134 289 149 343 149
525 0 189 -50 390 -151 600 -27 57 -49 105 -49 107 0 11 24 0 77 -35z m-1569
-169 c-3 -29 -21 -34 -26 -7 -2 9 -1 29 3 43 6 24 8 25 16 9 6 -10 9 -30 7
-45z m1797 -14 c17 -13 48 -64 77 -126 27 -57 62 -125 77 -150 l29 -47 6 -240
c10 -337 -2 -393 -124 -600 -75 -126 -89 -167 -100 -288 -5 -54 -14 -106 -20
-117 -20 -37 -12 -78 25 -118 31 -35 55 -79 55 -103 0 -32 -84 24 -93 63 -3
13 -11 62 -17 110 -6 53 -24 122 -45 177 -19 50 -35 101 -35 113 0 33 41 115
100 203 29 42 68 111 88 152 34 73 35 77 23 124 -12 44 -11 52 7 81 42 69 37
376 -9 556 -10 42 -36 112 -57 155 -39 80 -36 94 13 55z m-404 -105 c6 -16 6
-30 1 -35 -6 -6 -14 2 -20 20 -9 26 -7 42 5 42 2 0 8 -12 14 -27z m69 -160
c17 -44 22 -81 23 -153 0 -129 -9 -179 -33 -173 -11 3 -24 -4 -34 -18 -21 -31
-20 -38 4 -32 33 9 23 -8 -47 -79 -47 -47 -75 -68 -92 -68 -17 0 -41 -17 -73
-50 -53 -56 -56 -56 -29 -2 28 54 90 121 159 171 l60 44 13 81 c18 109 16 277
-4 341 l-16 50 24 -27 c13 -15 33 -53 45 -85z m526 55 c24 -47 10 -56 -19 -13
-31 45 -37 76 -11 54 8 -7 22 -26 30 -41z m50 -99 c7 -19 13 -44 13 -57 1 -36
-23 -21 -30 19 -3 19 -9 45 -13 58 -13 38 16 20 30 -20z m-1765 -136 c31 -34
43 -63 26 -62 -7 0 -32 8 -56 17 -42 16 -43 19 -47 65 l-3 48 27 -20 c15 -10
39 -32 53 -48z m1787 2 c14 -30 16 -85 4 -85 -19 0 -32 27 -32 67 0 48 11 55
28 18z m-1587 -38 c22 -15 39 -38 49 -66 14 -40 14 -43 -4 -57 -11 -8 -30 -14
-43 -14 -23 0 -23 -1 -8 -30 8 -16 23 -34 32 -39 17 -10 16 -11 -2 -12 -61 -4
-105 26 -105 72 0 24 5 28 30 31 30 3 30 4 15 26 -11 14 -26 22 -46 22 -24 0
-29 4 -29 25 0 29 32 65 59 65 10 0 33 -10 52 -23z m1159 -47 c7 -27 7 -53 0
-85 -14 -61 -62 -185 -72 -185 -11 0 -10 11 12 145 11 66 20 135 20 154 0 28
2 32 15 21 8 -7 19 -29 25 -50z m-443 14 c2 -5 -6 -24 -18 -43 -15 -25 -23
-31 -32 -22 -8 8 -6 20 6 47 16 33 36 41 44 18z m-947 -34 c21 -11 46 -30 54
-42 22 -31 20 -86 -3 -125 l-20 -31 -65 31 c-58 28 -65 35 -66 60 0 16 9 40
20 54 11 14 20 36 20 49 0 29 10 30 60 4z m116 -47 c-4 -4 -16 3 -26 17 -29
37 -24 49 7 18 15 -15 23 -31 19 -35z m1735 26 c5 -8 9 -32 9 -54 0 -41 0 -41
-34 -37 -30 3 -34 8 -40 40 -10 66 -9 70 25 67 17 -1 35 -8 40 -16z m-965 -44
c10 -24 -5 -65 -22 -65 -11 0 -14 5 -10 16 3 9 6 27 6 40 0 27 17 33 26 9z
m-559 -30 c3 -9 -1 -23 -10 -33 -37 -43 -40 -61 -13 -106 l25 -43 -25 -24 -26
-24 13 27 c11 25 9 32 -14 65 l-27 37 21 23 c13 13 19 28 15 39 -9 23 2 54 20
54 8 0 17 -7 21 -15z m121 -95 c26 -39 21 -51 -10 -24 -18 17 -18 13 6 -28 27
-47 28 -48 6 -48 -33 0 -76 27 -106 65 l-27 36 22 22 c11 13 21 29 21 36 0 21
62 -21 88 -59z m151 50 c17 -15 22 -26 17 -45 l-6 -25 -31 35 c-17 19 -28 39
-24 45 9 14 16 12 44 -10z m-76 -6 c7 -7 -14 -44 -25 -44 -5 0 -8 8 -8 18 0
27 18 41 33 26z m1320 -1 c9 -16 -11 -450 -23 -503 -7 -30 -38 -111 -71 -180
-85 -182 -93 -241 -47 -332 19 -40 15 -45 -25 -27 -49 22 -62 63 -62 199 0
140 4 156 102 400 67 165 93 271 93 373 0 60 3 77 14 77 8 0 17 -3 19 -7z
m-2318 -32 c37 -16 125 -103 125 -122 0 -4 -54 18 -120 48 -65 31 -117 60
-114 65 6 10 42 26 59 27 6 0 28 -8 50 -18z m591 -55 c-7 -23 -18 -51 -24 -62
-10 -19 -11 -19 -18 0 -5 12 -1 31 9 48 9 17 17 44 17 61 1 30 2 31 15 14 11
-16 11 -26 1 -61z m434 -54 c-14 -62 -81 -142 -119 -142 -49 0 -111 52 -111
92 0 28 51 22 101 -12 43 -29 44 -29 60 -10 9 10 24 49 33 87 21 83 39 110 44
67 2 -16 -1 -53 -8 -82z m-313 46 c29 -28 35 -58 10 -58 -6 0 -27 8 -48 18
-30 14 -38 23 -41 50 -2 18 -2 35 0 37 7 7 45 -16 79 -47z m-249 -10 c26 -25
28 -50 6 -69 -10 -8 -13 -21 -9 -37 6 -26 -1 -26 -74 4 l-33 14 7 57 c4 32 12
61 18 65 14 9 57 -9 85 -34z m639 -33 c-4 -11 -27 -14 -27 -2 0 54 0 53 15 32
9 -10 14 -24 12 -30z m387 -68 c-20 -52 -49 -110 -65 -129 l-28 -33 -1 31 c0
50 19 94 74 166 27 37 52 66 53 64 2 -2 -13 -46 -33 -99z m-1550 87 c21 -8 20
-27 -3 -48 -18 -16 -19 -16 -23 18 -4 37 -1 40 26 30z m1875 -10 c3 -3 -11
-36 -29 -74 -22 -45 -40 -70 -51 -70 -9 0 -28 -9 -43 -21 -29 -23 -31 -21 -14
16 8 17 18 25 28 22 43 -11 76 36 55 77 -20 37 -4 70 28 60 12 -3 24 -8 26
-10z m-1169 -14 c46 -24 60 -45 60 -94 0 -45 -17 -47 -53 -6 -15 17 -34 30
-42 30 -11 0 -15 12 -15 45 0 25 2 45 5 45 3 0 23 -9 45 -20z m1090 -47 c0
-22 -17 -49 -25 -41 -8 8 5 58 16 58 5 0 9 -8 9 -17z m-560 -3 c0 -5 -3 -10
-7 -10 -5 0 -15 -5 -23 -10 -12 -8 -11 -13 9 -33 27 -30 15 -42 -34 -33 -34 7
-75 46 -75 72 0 12 26 18 103 22 15 1 27 -2 27 -8z m60 -73 c0 -14 -12 -32
-31 -46 -37 -28 -51 -20 -21 12 12 13 22 31 22 40 0 9 7 17 15 17 9 0 15 -9
15 -23z m-595 -37 c10 -11 25 -20 33 -20 11 0 13 -8 8 -32 -4 -18 -10 -48 -13
-66 -4 -24 -9 -32 -20 -28 -8 3 -18 6 -23 6 -24 0 -37 31 -33 73 3 24 0 54 -6
66 -10 19 -9 21 12 21 13 0 32 -9 42 -20z m237 -19 c36 -40 36 -61 1 -61 -39
0 -89 33 -109 71 l-16 32 48 -6 c38 -4 55 -12 76 -36z m241 -21 c20 -22 27
-41 27 -71 l0 -40 -48 26 c-51 27 -82 68 -82 105 0 20 4 22 38 17 24 -4 47
-17 65 -37z m603 -7 c-14 -27 -28 -57 -32 -68 -7 -19 -7 -19 -11 -2 -7 27 4
60 28 90 33 43 42 31 15 -20z m-956 -30 c0 -7 -11 -13 -26 -13 -20 0 -25 4
-20 16 3 9 6 23 6 31 0 14 3 14 20 -2 11 -10 20 -24 20 -32z m531 6 c29 -29
39 -46 35 -60 -21 -67 -22 -63 12 -56 l32 7 0 -45 c0 -25 -2 -45 -4 -45 -2 0
-29 11 -59 25 -38 16 -61 34 -72 54 -20 39 -20 65 0 57 8 -3 22 -9 30 -12 21
-9 19 10 -5 31 -11 10 -20 30 -20 44 l-1 26 -19 -24 -20 -23 0 24 c0 53 37 51
91 -3z m669 17 c0 -26 -44 -86 -55 -75 -3 4 5 24 20 44 14 21 25 42 25 46 0 5
2 9 5 9 3 0 5 -11 5 -24z m-310 -73 c15 -25 15 -34 2 -98 -13 -63 -13 -74 3
-117 21 -60 13 -223 -13 -233 -21 -8 -25 0 -13 22 10 19 4 33 -41 95 -10 14
-8 21 11 42 20 21 23 32 17 63 -15 90 -17 153 -6 207 12 61 14 62 40 19z
m-826 1 c42 -20 59 -50 54 -95 l-3 -34 -52 51 c-32 30 -53 59 -53 72 0 26 8
27 54 6z m229 -7 c38 -23 77 -71 77 -94 0 -18 -35 -16 -70 2 -32 16 -60 61
-60 95 0 25 6 25 53 -3z m367 -24 c0 -36 0 -36 -20 -18 -19 17 -19 19 -4 37
23 24 24 24 24 -19z m-682 15 c19 -19 15 -48 -8 -48 -23 0 -35 22 -26 45 7 18
18 19 34 3z m1145 -4 c3 -4 -4 -27 -17 -53 -13 -25 -29 -65 -36 -88 -7 -23
-17 -40 -21 -37 -18 11 -8 62 22 122 29 60 38 69 52 56z m-1207 -45 c10 -16
-7 -28 -46 -31 -30 -3 -35 0 -38 20 -3 20 1 22 37 22 22 0 43 -5 47 -11z m511
-6 c-2 -10 -8 -25 -11 -34 -6 -14 2 -17 43 -21 33 -3 68 -16 98 -35 l48 -29
-3 -60 c-2 -32 -5 -61 -7 -63 -2 -2 -34 22 -72 53 -37 31 -82 61 -100 67 -31
10 -33 14 -33 55 0 48 14 84 32 84 5 0 8 -8 5 -17z m-398 -18 c18 -9 36 -32
50 -64 28 -66 27 -75 -6 -66 -45 10 -75 47 -80 99 -6 51 -4 52 36 31z m655
-79 c9 -27 15 -51 13 -52 -2 -2 -19 9 -38 25 -27 24 -32 32 -21 42 6 7 12 22
12 33 0 30 15 8 34 -48z m-401 17 c39 -20 56 -41 57 -71 l0 -22 -49 24 c-46
24 -61 41 -61 72 0 18 14 18 53 -3z m1023 -64 c-17 -52 -24 -66 -25 -46 -1 27
38 132 46 124 2 -2 -7 -37 -21 -78z m-1015 -38 c23 -23 29 -39 29 -70 0 -23
-5 -41 -11 -41 -38 0 -79 59 -79 115 0 34 24 32 61 -4z m114 18 c4 -5 0 -18
-9 -28 -9 -10 -16 -23 -16 -29 0 -20 -17 -13 -23 9 -10 38 30 78 48 48z m261
-15 c8 -30 -10 -54 -27 -37 -11 11 -2 63 12 63 5 0 12 -12 15 -26z m143 -119
c38 -40 38 -40 17 -56 -18 -15 -19 -19 -7 -58 7 -24 11 -45 8 -47 -8 -8 -71
42 -110 88 -37 44 -39 49 -28 79 6 18 11 50 11 73 l1 41 35 -40 c20 -22 53
-58 73 -80z m-709 92 c0 -19 -21 -37 -42 -37 -19 0 -22 8 -12 34 7 19 54 22
54 3z m390 -39 c60 -40 106 -95 98 -117 -4 -12 -74 12 -107 37 -38 28 -87 122
-64 122 5 0 38 -19 73 -42z m-93 -90 c3 -24 -1 -63 -8 -88 -11 -42 -13 -43
-20 -20 -9 32 -11 133 -3 155 10 26 26 2 31 -47z m258 8 c-4 -22 -9 -43 -12
-46 -10 -11 -18 22 -15 59 3 30 8 38 19 34 11 -4 13 -15 8 -47z m479 -50 c22
-75 21 -138 -3 -167 l-19 -24 -11 28 c-14 37 -14 49 4 73 17 23 19 67 4 95
-10 19 -7 49 5 49 3 0 12 -24 20 -54z m-856 28 c12 -8 29 -28 37 -44 14 -28
14 -31 -5 -50 -11 -11 -17 -26 -14 -35 4 -11 0 -15 -17 -15 -25 0 -69 36 -69
57 0 15 26 18 35 3 3 -5 10 -10 16 -10 20 0 7 25 -30 61 -22 20 -37 40 -34 43
12 11 59 6 81 -10z m1002 -21 c0 -21 3 -56 6 -78 l6 -40 -31 30 -32 31 18 47
c21 57 33 60 33 10z m-769 -4 c27 -13 45 -32 55 -54 22 -53 18 -56 -38 -30
-63 29 -98 60 -98 86 0 25 30 25 81 -2z m144 -51 c-14 -17 -32 -45 -39 -63
-16 -37 -31 -49 -47 -39 -7 4 -1 16 16 34 22 23 25 33 20 63 -7 35 -6 36 27
39 48 5 51 0 23 -34z m250 -57 c-10 -64 -15 -74 -31 -60 -17 14 -18 36 -2 96
10 43 12 45 25 27 10 -13 12 -32 8 -63z m-1997 38 c10 -15 10 -25 3 -32 -14
-14 -41 9 -41 34 0 25 22 24 38 -2z m2106 -17 c29 -26 56 -92 56 -139 0 -39
-2 -43 -25 -43 -34 0 -82 25 -95 49 -15 29 -13 81 3 81 8 0 22 -9 32 -20 11
-12 22 -17 28 -11 13 13 -10 51 -31 51 -10 0 -22 13 -29 31 -12 30 -12 31 15
24 15 -4 36 -14 46 -23z m-263 1 c29 -17 59 -67 59 -97 0 -20 -11 -20 -36 -1
-22 17 -54 20 -54 5 0 -5 17 -21 39 -35 38 -26 61 -60 61 -94 0 -64 -93 -39
-137 37 -20 33 -26 59 -27 101 0 94 31 122 95 84z m-305 -4 c10 -17 -23 -46
-37 -32 -7 7 -9 19 -6 27 7 18 33 21 43 5z m-1428 -33 c-1 -2 -25 -6 -52 -10
l-50 -6 24 25 c22 23 24 23 52 9 17 -9 28 -17 26 -18z m1503 -36 c28 -30 34
-42 24 -50 -24 -20 -62 12 -79 68 -11 35 14 27 55 -18z m-241 -9 c0 -5 -9 -16
-21 -27 -20 -18 -21 -18 -34 -1 -7 10 -11 26 -8 37 4 16 9 17 34 8 16 -5 29
-13 29 -17z m350 -32 c0 -18 -4 -28 -10 -24 -5 3 -10 20 -10 36 0 18 4 28 10
24 6 -3 10 -20 10 -36z m-169 -2 c38 -26 79 -81 79 -108 0 -16 -3 -16 -39 -2
-52 20 -80 52 -88 97 -7 42 1 45 48 13z m762 -31 c59 -57 76 -99 36 -89 -20 6
-21 3 -15 -23 21 -84 20 -84 -11 -84 -69 0 -99 59 -88 176 4 41 10 74 14 74 4
0 33 -24 64 -54z m211 -18 c9 -12 16 -31 16 -41 0 -16 -5 -18 -32 -12 -42 8
-78 48 -78 86 l0 29 39 -20 c22 -11 47 -30 55 -42z m-527 30 c33 -27 5 -56
-37 -38 -50 21 -51 67 -1 55 14 -4 32 -11 38 -17z m-28 -122 c0 -22 -4 -61 -8
-86 -6 -42 -8 -43 -19 -23 -17 32 -5 178 14 162 8 -7 14 -29 13 -53z m104 27
c16 -13 42 -23 58 -23 25 0 29 -4 29 -28 0 -16 -6 -36 -13 -46 -13 -17 -16
-17 -65 8 -56 29 -72 49 -72 95 0 35 16 34 63 -6z m-536 -48 c23 -14 50 -39
58 -55 30 -58 10 -94 -29 -51 -10 11 -30 21 -45 23 -24 3 -26 8 -31 56 -3 28
-4 52 -1 52 2 0 24 -11 48 -25z m961 -3 c55 -26 58 -30 50 -53 -12 -30 -6 -73
16 -121 l16 -38 -28 0 c-16 0 -46 11 -66 25 -20 14 -41 25 -46 25 -6 0 -10 41
-10 95 0 52 2 95 4 95 2 0 31 -13 64 -28z m-710 -11 c51 -27 116 -95 109 -115
-9 -22 -39 -20 -71 5 -43 34 -31 0 14 -38 22 -19 40 -43 40 -54 0 -24 15 -24
39 0 19 19 19 17 25 -93 4 -61 12 -130 18 -154 14 -54 57 -99 103 -108 28 -5
35 -11 35 -29 0 -13 5 -25 11 -27 22 -7 -3 -38 -32 -38 -33 0 -36 -6 -13 -31
20 -22 32 -99 15 -99 -25 0 -70 31 -106 72 -31 37 -36 48 -31 78 17 116 18
140 8 140 -6 0 -12 -17 -14 -37 -2 -28 -8 -39 -22 -41 -16 -3 -18 0 -12 25 3
15 9 87 12 158 l7 130 -59 13 c-32 7 -75 21 -94 30 l-35 17 -3 108 c-2 71 1
107 8 107 6 0 27 -9 48 -19z m430 -33 c7 -7 12 -15 12 -18 0 -8 -51 -32 -57
-27 -5 6 19 57 27 57 3 0 11 -5 18 -12z m-125 -33 l47 -27 0 -54 c0 -30 -2
-54 -5 -54 -3 0 -23 11 -45 25 -40 25 -82 80 -95 124 -7 22 -5 24 21 18 16 -3
50 -18 77 -32z m297 -37 c0 -29 7 -49 22 -65 21 -22 21 -24 5 -40 -9 -10 -17
-12 -17 -6 0 6 -16 34 -36 62 l-35 52 23 19 c33 28 38 25 38 -22z m-853 -10
c35 -37 53 -69 53 -93 0 -14 -3 -14 -29 -1 -33 17 -91 81 -91 100 0 36 29 34
67 -6z m806 -67 c18 -30 23 -71 9 -71 -4 0 -25 12 -46 26 -26 18 -41 23 -48
16 -7 -7 3 -19 30 -36 46 -29 65 -57 56 -80 -15 -40 -95 0 -120 60 -8 19 -14
65 -14 104 l0 71 58 -31 c32 -17 66 -44 75 -59z m-352 47 c16 -30 -11 -51 -46
-34 -27 12 -31 26 -13 44 19 19 46 14 59 -10z m71 -90 c43 -24 68 -62 68 -101
0 -37 -21 -49 -54 -32 -35 18 -36 18 -36 2 0 -8 18 -30 41 -50 34 -31 38 -39
30 -56 -17 -31 -47 -35 -85 -12 -33 21 -34 22 -41 116 -8 106 -1 155 22 155 8
0 33 -10 55 -22z m114 -25 c4 -15 16 -42 27 -61 20 -33 20 -33 0 -52 -11 -10
-23 -36 -26 -58 -4 -22 -14 -52 -22 -68 -8 -16 -15 -35 -15 -41 0 -7 -7 -13
-15 -13 -21 0 -19 17 5 47 21 27 25 59 11 82 -6 9 -2 25 10 45 23 37 24 62 4
100 -19 36 -19 46 0 46 8 0 18 -12 21 -27z m-596 -18 c0 -24 -27 -47 -51 -43
-19 2 -23 8 -21 28 4 46 8 50 41 37 17 -6 31 -16 31 -22z m934 14 c28 -22 56
-68 56 -94 0 -9 -9 -15 -25 -15 -14 0 -25 -3 -25 -6 0 -3 11 -19 25 -36 43
-52 30 -77 -29 -53 -19 8 -47 15 -61 15 l-25 0 0 105 0 105 29 0 c15 0 40 -9
55 -21z m-727 -5 c34 -17 83 -76 83 -101 0 -7 -9 -13 -20 -13 -28 0 -26 -31 5
-60 22 -20 35 -60 20 -60 -3 0 -29 12 -58 26 -71 36 -107 71 -107 106 0 32 15
36 48 12 40 -28 25 8 -20 48 -36 31 -40 39 -28 48 21 14 37 13 77 -6z m603
-137 c0 -24 6 -49 12 -55 10 -10 10 -17 -1 -34 -8 -12 -17 -34 -22 -48 -5 -18
-8 -6 -8 41 -1 46 -6 70 -16 79 -18 15 -19 32 -3 48 24 24 38 13 38 -31z
m-108 -13 l53 -26 0 -91 c0 -51 -4 -95 -9 -98 -13 -10 -61 6 -112 36 -47 28
-48 30 -8 106 10 21 14 43 9 65 -7 41 -1 42 67 8z m-1822 0 c0 -9 -7 -14 -17
-12 -25 5 -28 28 -4 28 12 0 21 -6 21 -16z m1320 -104 c23 -12 49 -37 64 -62
l25 -43 -21 -8 c-33 -12 -100 26 -126 72 -12 21 -22 44 -22 50 0 17 37 13 80
-9z m715 -1 c48 -23 70 -51 61 -76 -4 -10 -15 -14 -36 -11 -40 6 -38 -8 4 -26
19 -8 40 -24 46 -37 11 -19 10 -25 -6 -36 -26 -19 -45 -16 -92 14 l-42 27 0
83 c0 49 4 83 10 83 6 0 31 -10 55 -21z m-708 -128 c48 -24 63 -46 63 -90 0
-35 -15 -39 -58 -17 -52 27 -92 92 -92 149 0 20 0 20 23 0 12 -11 41 -30 64
-42z m610 -18 c10 -33 10 -40 -6 -56 -16 -17 -18 -16 -45 12 l-29 30 29 25
c16 14 31 26 34 26 3 0 10 -17 17 -37z m-478 -34 l23 -51 -27 -28 c-15 -16
-30 -43 -34 -62 -7 -30 -11 -33 -40 -31 -68 3 -81 10 -81 49 0 29 3 35 16 30
49 -19 63 -17 88 8 27 26 32 58 17 99 -9 23 -6 37 8 37 3 0 17 -23 30 -51z
m306 31 c39 -15 114 -82 115 -103 0 -9 -11 -22 -25 -29 l-24 -11 24 -29 c29
-34 31 -50 11 -67 -18 -15 -40 -5 -107 48 -44 35 -45 37 -31 60 15 22 11 59
-13 124 -8 20 9 22 50 7z m-76 -122 c-16 -39 -47 -64 -61 -50 -9 9 -6 18 11
36 17 18 24 37 24 68 -1 62 9 69 24 18 10 -34 11 -52 2 -72z m374 -6 c53 -36
47 -72 -13 -72 -32 0 -32 -18 0 -35 21 -11 30 -23 30 -40 0 -32 -5 -32 -69 8
l-53 32 -3 87 -3 86 36 -20 c21 -12 54 -32 75 -46z m-531 -21 c60 -38 80 -69
76 -118 -4 -52 -36 -57 -79 -13 -17 17 -34 29 -36 26 -12 -11 9 -37 57 -72 53
-38 69 -69 50 -103 -14 -27 -19 -27 -69 10 -51 36 -80 96 -81 162 0 52 18 137
29 137 4 0 28 -13 53 -29z m412 -185 l-36 -29 4 -78 c3 -43 1 -76 -4 -73 -4 3
-8 20 -8 38 0 19 -7 39 -15 46 -11 9 -14 22 -10 41 3 15 0 42 -9 62 -14 35
-14 36 17 60 l32 25 32 -31 33 -31 -36 -30z m-164 49 c35 -18 60 -52 60 -82 0
-27 -16 -29 -63 -10 -40 17 -55 35 -63 75 -6 28 -4 32 15 32 12 0 35 -7 51
-15z m330 -66 l0 -31 -37 23 c-48 29 -53 33 -28 25 11 -3 27 -1 35 4 24 16 30
12 30 -21z m-104 -20 c13 -12 34 -21 48 -21 24 0 26 -4 26 -45 0 -47 0 -47
-57 -26 -26 10 -12 -17 22 -43 28 -21 35 -33 35 -60 0 -32 -2 -34 -27 -28 -72
16 -101 68 -102 182 -1 70 13 80 55 41z m-210 -41 l64 -32 0 -58 c0 -69 -8
-72 -91 -30 l-54 27 -3 63 c-2 41 1 62 8 62 7 0 41 -14 76 -32z m-203 -77 c9
-9 -7 -56 -22 -65 -15 -10 -91 13 -91 26 0 7 10 22 22 35 18 19 28 22 53 17
16 -3 34 -9 38 -13z m244 -117 c8 -21 -30 -59 -51 -51 -10 4 -16 18 -16 37 0
27 3 30 30 30 19 0 33 -6 37 -16z m261 -51 c-14 -29 -58 -45 -58 -21 0 18 11
31 40 51 29 20 37 9 18 -30z"/>
<path d="M1310 3873 c-39 -139 -37 -234 6 -281 l25 -27 -8 25 c-4 14 -7 91 -5
173 1 81 1 147 -2 147 -3 0 -10 -17 -16 -37z"/>
<path d="M1671 3732 c-25 -64 -34 -104 -35 -154 0 -39 3 -68 9 -68 6 0 11 24
11 53 1 37 11 70 33 114 31 61 45 133 26 139 -5 2 -25 -36 -44 -84z"/>
<path d="M1048 2925 c-10 -10 54 -66 71 -63 13 3 9 10 -16 36 -31 31 -44 38
-55 27z"/>
<path d="M420 2203 l0 -43 -45 0 c-49 0 -60 -14 -20 -24 49 -12 57 -85 15
-139 -25 -32 -25 -37 1 -37 12 0 36 15 54 33 60 60 69 168 19 225 l-23 27 -1
-42z"/>
</g>
</svg>
